<svg width="111" height="22" viewBox="0 0 111 22" fill="none" xmlns="http://www.w3.org/2000/svg">
<path d="M31.3316 9.29668C30.0052 9.29668 28.8397 9.7488 27.9054 10.5124V5.29778C27.9054 5.08678 27.7446 4.93606 27.5436 4.93606C27.4733 4.93606 27.4031 4.9662 27.3629 4.9863L25.3333 5.90063C25.1725 5.95086 25.082 6.08148 25.082 6.24224V15.1744C25.082 18.4901 27.6442 21.0421 30.97 21.0421C34.2957 21.0421 36.8577 18.4801 36.8577 15.1744C36.8577 11.8688 34.4362 9.30672 31.3316 9.30672V9.29668ZM30.97 18.3394C29.2618 18.3394 27.9355 17.0333 27.9355 15.1644C27.9355 13.2956 29.2618 11.9894 30.97 11.9894C32.678 11.9894 34.0043 13.2956 34.0043 15.1644C34.0043 17.0333 32.678 18.3394 30.97 18.3394Z" fill="#CE1732"/>
<path d="M56.1045 4.92605C56.0342 4.92605 55.9638 4.95619 55.9237 4.97629L53.8841 5.89061C53.7233 5.94085 53.6328 6.07145 53.6328 6.23221V20.4394C53.6328 20.6503 53.7936 20.801 53.9946 20.801H56.0443C56.2954 20.801 56.4562 20.6404 56.4562 20.4394V5.29781C56.4562 5.08681 56.2954 4.93609 56.0944 4.93609L56.1045 4.92605Z" fill="#CE1732"/>
<path d="M49.9339 9.70864H47.8339C47.623 9.70864 47.4723 9.86941 47.4723 10.0703V15.7572C47.4723 17.2844 46.347 18.3394 44.89 18.3394C43.4331 18.3394 42.3078 17.2945 42.3078 15.7572V10.0703C42.3078 9.85935 42.147 9.70864 41.9462 9.70864H39.8965C39.6452 9.70864 39.4844 9.86941 39.4844 10.0703V15.7572C39.4844 18.7513 41.8356 21.0322 44.9 21.0322C47.9645 21.0322 50.3156 18.7513 50.3156 15.7572V10.1206C50.3156 9.8694 50.155 9.70864 49.954 9.70864H49.9439H49.9339Z" fill="#CE1732"/>
<path d="M90.9079 9.70872H88.7375C88.5065 9.70872 88.3759 9.82929 88.3256 9.95991L85.3114 17.797L82.257 9.95991C82.2067 9.81923 82.0761 9.70872 81.9153 9.70872H79.5843C79.3733 9.70872 79.2227 9.84939 79.2227 10.0302C79.2227 10.1207 79.2728 10.2412 79.293 10.3015L83.3521 20.55C83.4024 20.7106 83.533 20.8011 83.7139 20.8011H86.7683C86.9291 20.8011 87.0396 20.7106 87.1098 20.5701L91.1993 10.2915C91.2293 10.2211 91.2695 10.1106 91.2695 10.0202C91.2695 9.83933 91.1088 9.69867 90.9079 9.69867H90.8977L90.9079 9.70872Z" fill="#CE1732"/>
<path d="M109.741 4.92605C109.671 4.92605 109.611 4.95619 109.56 4.97629L107.521 5.89061C107.36 5.94085 107.27 6.07145 107.27 6.23221V20.3891C107.27 20.6404 107.43 20.801 107.631 20.801H109.731C109.942 20.801 110.093 20.6404 110.093 20.4394V5.29781C110.093 5.08681 109.932 4.93609 109.731 4.93609L109.741 4.92605Z" fill="#CE1732"/>
<path d="M98.4653 9.29673C95.23 9.29673 92.668 11.8588 92.668 15.1645C92.668 18.47 95.3204 21.0322 98.807 21.0322C100.565 21.0322 102.213 20.349 103.308 19.2338C103.358 19.1634 103.399 19.093 103.399 18.9825C103.399 18.8921 103.358 18.8016 103.278 18.7312L102.002 17.4252C101.932 17.3548 101.841 17.3045 101.751 17.3045C101.63 17.3045 101.54 17.3548 101.479 17.4252C100.746 18.018 99.9725 18.3094 98.827 18.3094C97.2697 18.3094 95.9937 17.4854 95.5615 16.1793H103.831C104.082 16.1793 104.283 15.9682 104.283 15.7673V15.1544C104.283 11.8387 101.701 9.28667 98.4553 9.28667L98.4653 9.29673ZM95.5615 14.019C95.9734 12.6928 97.0286 11.9693 98.4653 11.9693C99.9021 11.9693 100.997 12.7932 101.339 14.019H95.5615Z" fill="#CE1732"/>
<path d="M60.1023 15.1143L63.8501 10.3418C63.9202 10.2714 63.9906 10.1609 63.9906 10.0403C63.9906 9.82934 63.83 9.67862 63.629 9.67862H61.2779C61.0668 9.67862 60.9563 9.7992 60.8658 9.9298L57.0077 14.9335C56.867 15.0942 56.8469 15.2751 57.0077 15.4358L61.0066 20.5701C61.097 20.6906 61.2175 20.8011 61.3682 20.8011H63.8801C64.0912 20.8011 64.2419 20.6405 64.2419 20.4395C64.2419 20.3189 64.1715 20.2284 64.1011 20.1682L60.1023 15.1244V15.1143Z" fill="#CE1732"/>
<path d="M71.7712 9.29666C68.3652 9.29666 65.7227 11.8588 65.7227 15.1644C65.7227 18.47 68.3753 21.0321 71.7712 21.0321C75.1673 21.0321 77.8198 18.47 77.8198 15.1644C77.8198 11.8588 75.1673 9.29666 71.7712 9.29666ZM71.7712 18.3393C69.9728 18.3393 68.5461 17.0333 68.5461 15.1644C68.5461 13.2956 69.9626 11.9894 71.7712 11.9894C73.5798 11.9894 74.9965 13.2956 74.9965 15.1644C74.9965 17.0333 73.5798 18.3393 71.7712 18.3393Z" fill="#CE1732"/>
<path d="M13.554 7.48819C13.554 3.76056 10.5197 0.726223 6.78204 0.726223C3.75777 0.726223 1.19565 2.71562 0.321519 5.45859C1.83869 5.45859 6.772 5.46863 6.772 5.46863C7.89733 5.46863 8.79154 6.3729 8.79154 7.49823C8.79154 7.86998 8.77144 10.9947 8.77144 12.2507C9.76616 12.2507 12.3383 12.2306 13.5239 12.2306C14.6492 12.2306 15.5535 13.1349 15.5535 14.2602C15.5535 15.3855 14.6492 16.2898 13.5239 16.2898H4.73237V9.51776H0V21.0121H6.61124C9.19345 21.0221 11.9867 21.0322 13.5139 21.0322C17.2415 21.0322 20.2858 17.9979 20.2858 14.2602C20.2858 10.5225 17.2515 7.49823 13.5239 7.48819H13.554Z" fill="#CE1732"/>
</svg>
