<svg width="15" height="29" viewBox="0 0 15 29" fill="none" xmlns="http://www.w3.org/2000/svg">
<path fill-rule="evenodd" clip-rule="evenodd" d="M0.593003 19.205C0.8202 18.9768 1.1283 18.8486 1.44956 18.8486C1.77082 18.8486 2.07892 18.9768 2.30612 19.205L7.50725 24.4313L12.7084 19.205C12.9369 18.9833 13.2429 18.8606 13.5606 18.8633C13.8782 18.8661 14.1821 18.9942 14.4067 19.2199C14.6314 19.4456 14.7588 19.7509 14.7615 20.0701C14.7643 20.3893 14.6422 20.6968 14.4215 20.9264L8.36381 27.0134C8.13661 27.2416 7.82851 27.3698 7.50725 27.3698C7.186 27.3698 6.87789 27.2416 6.65069 27.0134L0.593003 20.9264C0.365875 20.6981 0.238281 20.3885 0.238281 20.0657C0.238281 19.7429 0.365875 19.4333 0.593003 19.205Z" fill="white"/>
<path opacity="0.49" fill-rule="evenodd" clip-rule="evenodd" d="M0.593003 9.75881C0.8202 9.53058 1.1283 9.40237 1.44956 9.40237C1.77082 9.40237 2.07892 9.53058 2.30612 9.75881L7.50725 14.9851L12.7084 9.75881C12.9369 9.53705 13.2429 9.41435 13.5606 9.41712C13.8782 9.41989 14.1821 9.54793 14.4067 9.77364C14.6314 9.99935 14.7588 10.3047 14.7615 10.6239C14.7643 10.9431 14.6422 11.2506 14.4215 11.4802L8.36381 17.5672C8.13661 17.7954 7.82851 17.9236 7.50725 17.9236C7.186 17.9236 6.87789 17.7954 6.65069 17.5672L0.593003 11.4802C0.365875 11.2519 0.238281 10.9423 0.238281 10.6195C0.238281 10.2967 0.365875 9.9871 0.593003 9.75881Z" fill="white"/>
</svg>
