<svg width="28" height="35" viewBox="0 0 28 35" fill="none" xmlns="http://www.w3.org/2000/svg">
<path fill-rule="evenodd" clip-rule="evenodd" d="M12.9969 30.7721C12.6226 30.7721 12.2648 30.6058 12.0236 30.3063C9.55283 27.2366 1.5 16.8045 1.5 11.4969C1.5 5.15781 6.65781 0 12.9969 0C19.3444 0 24.5022 5.15781 24.5022 11.4969C24.5022 16.8045 16.441 27.2366 13.9786 30.3063C13.7373 30.6058 13.3796 30.7721 12.9969 30.7721ZM12.9969 2.59554C8.08868 2.59554 4.09554 6.58868 4.09554 11.4969C4.09554 16.4135 8.08868 20.4066 12.9969 20.4066C17.9135 20.4066 21.9066 16.4135 21.9066 11.4969C21.9066 6.58868 17.9135 2.59554 12.9969 2.59554Z" fill="white"/>
<g filter="url(#filter0_d_1006_2228)">
<path fill-rule="evenodd" clip-rule="evenodd" d="M24.2982 11.4972C24.2982 16.7133 16.4117 26.954 13.8162 30.1818C13.3919 30.7059 12.6016 30.7059 12.1773 30.1818C9.58177 26.954 1.69531 16.7133 1.69531 11.4972C1.69531 5.25793 6.75329 0.199951 12.9926 0.199951C19.2402 0.199951 24.2982 5.25793 24.2982 11.4972ZM22.1019 11.4972C22.1019 6.47251 18.0256 2.39618 12.9926 2.39618C7.96787 2.39618 3.89154 6.47251 3.89154 11.4972C3.89154 16.5302 7.96787 20.6066 12.9926 20.6066C18.0256 20.6066 22.1019 16.5302 22.1019 11.4972Z" fill="#1D1D21"/>
</g>
<path opacity="0.3" d="M20.1084 33.0932C20.1084 33.5923 16.9305 33.9999 12.9956 33.9999C9.06901 33.9999 5.88281 33.5923 5.88281 33.0932C5.88281 32.6023 9.06901 32.1947 12.9956 32.1947C16.9305 32.1947 20.1084 32.6023 20.1084 33.0932Z" fill="#1D1D21"/>
<circle cx="13.0018" cy="11.5011" r="8.53306" fill="#ECF1EB"/>
<path d="M8.82067 11.2109C8.82067 12.0175 9.47953 12.6776 10.2846 12.6776H13.0685V14H10.2846C9.75061 14 9.24686 13.8439 8.82067 13.5789C8.45431 13.3503 8.14261 13.0439 7.92028 12.6769C7.64994 12.2499 7.5 11.7452 7.5 11.2102V10.7891C7.5 10.2541 7.64994 9.74938 7.92028 9.3224C8.42403 8.50469 9.31851 8 10.2846 8H18.9776C18.9776 8.73039 18.3867 9.3224 17.6577 9.3224H10.2846C9.48027 9.3224 8.82067 9.98989 8.82067 10.7891V11.2109Z" fill="#1D1D21"/>
<path d="M14.7684 12.6766V11.6613H16.8743C17.6033 11.6613 18.1949 11.0693 18.1949 10.3381H15.1525V10.3433H13.4492V13.999H19.017C19.017 13.2686 18.4254 12.6758 17.6963 12.6758H14.7684V12.6766Z" fill="#1D1D21"/>
<defs>
<filter id="filter0_d_1006_2228" x="0.695312" y="0.199951" width="26.6016" height="34.3749" filterUnits="userSpaceOnUse" color-interpolation-filters="sRGB">
<feFlood flood-opacity="0" result="BackgroundImageFix"/>
<feColorMatrix in="SourceAlpha" type="matrix" values="0 0 0 0 0 0 0 0 0 0 0 0 0 0 0 0 0 0 127 0" result="hardAlpha"/>
<feOffset dx="1" dy="2"/>
<feGaussianBlur stdDeviation="1"/>
<feComposite in2="hardAlpha" operator="out"/>
<feColorMatrix type="matrix" values="0 0 0 0 0.0666667 0 0 0 0 0.333333 0 0 0 0 0.00392157 0 0 0 0.4 0"/>
<feBlend mode="normal" in2="BackgroundImageFix" result="effect1_dropShadow_1006_2228"/>
<feBlend mode="normal" in="SourceGraphic" in2="effect1_dropShadow_1006_2228" result="shape"/>
</filter>
</defs>
</svg>
