<svg width="58" height="50" viewBox="0 0 58 50" fill="none" xmlns="http://www.w3.org/2000/svg">
<path d="M21.3086 17.1727C21.3086 16.9734 21.3548 16.778 21.4423 16.6032C21.7298 16.0374 22.3798 15.833 22.8961 16.148L35.7587 23.9754C35.9337 24.0821 36.0774 24.2402 36.1737 24.4318C36.4612 24.9975 36.2737 25.7111 35.7587 26.0248L22.8961 33.8521C22.7392 33.9484 22.56 33.9995 22.3773 34C21.7873 34 21.3086 33.4754 21.3086 32.8287V17.1727Z" fill="url(#paint0_linear_1006_2081)"/>
<path d="M56.7305 41.9017V0.5H0.882084V49.5H56.7305V41.9017Z" stroke="url(#paint1_linear_1006_2081)"/>
<defs>
<linearGradient id="paint0_linear_1006_2081" x1="12.0997" y1="23.1076" x2="44.6428" y2="23.1076" gradientUnits="userSpaceOnUse">
<stop offset="0.264264" stop-color="#FED67E"/>
<stop offset="0.297297" stop-color="#CFA547"/>
<stop offset="0.444444" stop-color="#C49C3A"/>
<stop offset="0.582663" stop-color="#A7752C"/>
<stop offset="0.780163" stop-color="#BF973A"/>
<stop offset="1" stop-color="#C29D3E"/>
</linearGradient>
<linearGradient id="paint1_linear_1006_2081" x1="57.2305" y1="19.6147" x2="0.382083" y2="19.6147" gradientUnits="userSpaceOnUse">
<stop stop-color="#FED67E"/>
<stop offset="0.189601" stop-color="#CFA547"/>
<stop offset="0.389037" stop-color="#C49C3A"/>
<stop offset="0.582663" stop-color="#845D24"/>
<stop offset="0.780163" stop-color="#BF973A"/>
<stop offset="1" stop-color="#C29D3E"/>
</linearGradient>
</defs>
</svg>
