<svg width="90" height="55" viewBox="0 0 90 55" fill="none" xmlns="http://www.w3.org/2000/svg">
<path d="M21.0931 43.5149C20.6753 43.0146 20.0385 42.6934 19.3449 42.6934H17.0054C16.7098 42.6934 16.4255 42.5143 16.3487 42.2329C16.235 41.8236 16.5619 41.4313 16.9599 41.4313H18.2533H19.9703C20.6355 41.4313 21.1727 40.894 21.1727 40.2288V39.8024C21.1727 39.7939 21.167 39.7882 21.1585 39.7882H18.2505H16.9571C16.741 39.7882 16.525 39.8166 16.3232 39.8763C15.3822 40.1521 14.6858 41.0276 14.6801 42.051V42.0652V42.0737C14.6886 42.2898 14.7171 42.5001 14.7711 42.6934C14.8592 43.0004 15.0099 43.2762 15.2117 43.5149C15.496 43.8589 15.8854 44.1204 16.326 44.2483C16.5278 44.308 16.7382 44.3393 16.9457 44.3393H19.3449C19.3449 44.3393 19.3449 44.3393 19.3534 44.3393C19.7827 44.3478 20.1266 44.8083 19.9049 45.2518C19.794 45.4735 19.5524 45.6014 19.3051 45.6014H18.0486H16.7894H16.3317H8.65086V44.3393H11.1609H11.2746C12.1814 44.3393 12.9177 43.6031 12.9177 42.6963H11.1609H8.65086V41.4341H12.298C13.2048 41.4341 13.941 40.6979 13.941 39.7911H8.65086H7.00781V41.4341V44.3393V45.6014V47.2445H8.65086H15.1435H18.0515H18.4352H19.3506C20.5985 47.2445 21.6219 46.2211 21.6219 44.9647C21.6219 44.7486 21.5906 44.5383 21.5309 44.3365C21.4371 44.0323 21.2864 43.7537 21.0931 43.5149Z" fill="url(#paint0_linear_1006_2468)"/>
<path d="M25.8324 41.4313H27.6545C28.5613 41.4313 29.2976 40.695 29.2976 39.7882H25.8324C24.6299 39.7882 23.5156 40.4164 22.8902 41.4313C22.5548 41.9628 22.3672 42.5882 22.3672 43.2534V43.7765C22.3672 44.4416 22.5548 45.0699 22.8902 45.5986C23.166 46.0534 23.5554 46.4343 24.0102 46.7186C24.5418 47.0483 25.1672 47.2416 25.8324 47.2416H29.2976C29.2976 46.3348 28.5613 45.5986 27.6545 45.5986H25.8324C24.8289 45.5986 24.0102 44.7771 24.0102 43.7765V43.2534C24.0102 42.2613 24.8318 41.4313 25.8324 41.4313Z" fill="url(#paint1_linear_1006_2468)"/>
<path d="M30.0469 47.2445H31.8918L32.429 46.1756H35.2006L35.7464 47.2445H37.5856L33.8191 39.7882C32.5655 42.2755 31.3033 44.7572 30.0469 47.2445ZM33.2591 44.5326L33.8191 43.4353L34.3705 44.5326H33.2591Z" fill="url(#paint2_linear_1006_2468)"/>
<path d="M42.4805 39.7882H39.979H38.3359V45.2035V47.2416H39.979V45.2035H42.5573C44.2657 45.2035 45.6131 43.6087 45.1896 41.8435C44.8968 40.6183 43.7427 39.7882 42.4805 39.7882ZM42.5573 43.5604H39.979V41.4313H42.5175C42.9808 41.4313 43.4157 41.707 43.5664 42.1448C43.8166 42.8753 43.2566 43.5604 42.5573 43.5604Z" fill="url(#paint3_linear_1006_2468)"/>
<path d="M51.3097 41.4313C52.2165 41.4313 52.9527 40.695 52.9527 39.7882H47.6626H46.0195V41.4313V44.3365V45.5986V47.2416H47.6626H52.9527C52.9527 46.3348 52.2165 45.5986 51.3097 45.5986H47.6626V44.3365H50.1726H50.2863C51.1931 44.3365 51.9294 43.6002 51.9294 42.6934H51.3097H50.1755H47.6654V41.4313H51.3097Z" fill="url(#paint4_linear_1006_2468)"/>
<path d="M60.1566 41.4313H61.9787C62.8855 41.4313 63.6218 40.695 63.6218 39.7882H60.1566C58.9542 39.7882 57.8398 40.4164 57.2145 41.4313C56.879 41.9628 56.6914 42.5882 56.6914 43.2534V43.7765C56.6914 44.4416 56.879 45.0699 57.2145 45.5986C57.4902 46.0534 57.8796 46.4343 58.3345 46.7186C58.866 47.0483 59.4914 47.2416 60.1566 47.2416H63.6218C63.6218 46.3348 62.8855 45.5986 61.9787 45.5986H60.1566C59.1531 45.5986 58.3345 44.7771 58.3345 43.7765V43.2534C58.3345 42.2613 59.156 41.4313 60.1566 41.4313Z" fill="url(#paint5_linear_1006_2468)"/>
<path d="M66.0141 39.7882H64.3711V47.2445H66.0141V39.7882Z" fill="url(#paint6_linear_1006_2468)"/>
<path d="M69.4082 39.7882H66.7617V41.4313H69.4082V47.2445H71.0513V41.4313H73.6949V39.7882H71.0513H69.4082Z" fill="url(#paint7_linear_1006_2468)"/>
<path d="M79.3375 39.7882L78.7491 40.6609L77.8821 41.9458L77.1032 40.7974L76.4323 39.7882H74.4453L76.8871 43.4183L77.1032 43.7338V46.042V47.2445H78.7491V46.1756V43.5974L78.8742 43.4183L81.3188 39.7882H79.3375Z" fill="url(#paint8_linear_1006_2468)"/>
<path d="M27.0631 21.3422C27.0631 24.4407 29.5988 26.9763 32.6972 26.9763H43.4112V32.0561H32.6972C30.642 32.0561 28.7033 31.4563 27.0631 30.4386C25.6532 29.5603 24.4536 28.3834 23.5979 26.9735C22.5575 25.3333 21.9805 23.3946 21.9805 21.3393V19.7219C21.9805 17.6666 22.5575 15.728 23.5979 14.0878C25.5366 10.9466 28.9791 9.00795 32.6972 9.00795H66.1523C66.1523 11.8136 63.8782 14.0878 61.0725 14.0878H32.6972C29.6016 14.0878 27.0631 16.6518 27.0631 19.7219V21.3422Z" fill="url(#paint9_linear_1006_2468)"/>
<path d="M49.9871 26.9735V23.0734H58.0915C60.8972 23.0734 63.1741 20.7993 63.1741 17.9907H51.4653V18.0106H44.9102V32.0533H66.338C66.338 29.2476 64.0611 26.9706 61.2554 26.9706H49.9871V26.9735Z" fill="url(#paint10_linear_1006_2468)"/>
<defs>
<linearGradient id="paint0_linear_1006_2468" x1="-31.7025" y1="0.810557" x2="72.4124" y2="97.9178" gradientUnits="userSpaceOnUse">
<stop stop-color="#FFD77F"/>
<stop offset="0.2279" stop-color="#CEA449"/>
<stop offset="0.414" stop-color="#C49C3B"/>
<stop offset="0.586" stop-color="#845D25"/>
<stop offset="0.7721" stop-color="#BF973D"/>
<stop offset="1" stop-color="#C29C41"/>
</linearGradient>
<linearGradient id="paint1_linear_1006_2468" x1="-25.7472" y1="-5.57399" x2="78.3678" y2="91.5333" gradientUnits="userSpaceOnUse">
<stop stop-color="#FFD77F"/>
<stop offset="0.2279" stop-color="#CEA449"/>
<stop offset="0.414" stop-color="#C49C3B"/>
<stop offset="0.586" stop-color="#845D25"/>
<stop offset="0.7721" stop-color="#BF973D"/>
<stop offset="1" stop-color="#C29C41"/>
</linearGradient>
<linearGradient id="paint2_linear_1006_2468" x1="-23.3992" y1="-8.09256" x2="80.7157" y2="89.0147" gradientUnits="userSpaceOnUse">
<stop stop-color="#FFD77F"/>
<stop offset="0.2279" stop-color="#CEA449"/>
<stop offset="0.414" stop-color="#C49C3B"/>
<stop offset="0.586" stop-color="#845D25"/>
<stop offset="0.7721" stop-color="#BF973D"/>
<stop offset="1" stop-color="#C29C41"/>
</linearGradient>
<linearGradient id="paint3_linear_1006_2468" x1="-19.1911" y1="-12.6015" x2="84.9239" y2="84.5058" gradientUnits="userSpaceOnUse">
<stop stop-color="#FFD77F"/>
<stop offset="0.2279" stop-color="#CEA449"/>
<stop offset="0.414" stop-color="#C49C3B"/>
<stop offset="0.586" stop-color="#845D25"/>
<stop offset="0.7721" stop-color="#BF973D"/>
<stop offset="1" stop-color="#C29C41"/>
</linearGradient>
<linearGradient id="paint4_linear_1006_2468" x1="-15.2324" y1="-16.8459" x2="88.8826" y2="80.2614" gradientUnits="userSpaceOnUse">
<stop stop-color="#FFD77F"/>
<stop offset="0.2279" stop-color="#CEA449"/>
<stop offset="0.414" stop-color="#C49C3B"/>
<stop offset="0.586" stop-color="#845D25"/>
<stop offset="0.7721" stop-color="#BF973D"/>
<stop offset="1" stop-color="#C29C41"/>
</linearGradient>
<linearGradient id="paint5_linear_1006_2468" x1="-9.77773" y1="-22.6936" x2="94.3373" y2="74.4137" gradientUnits="userSpaceOnUse">
<stop stop-color="#FFD77F"/>
<stop offset="0.2279" stop-color="#CEA449"/>
<stop offset="0.414" stop-color="#C49C3B"/>
<stop offset="0.586" stop-color="#845D25"/>
<stop offset="0.7721" stop-color="#BF973D"/>
<stop offset="1" stop-color="#C29C41"/>
</linearGradient>
<linearGradient id="paint6_linear_1006_2468" x1="-7.92508" y1="-24.6811" x2="96.1899" y2="72.4261" gradientUnits="userSpaceOnUse">
<stop stop-color="#FFD77F"/>
<stop offset="0.2279" stop-color="#CEA449"/>
<stop offset="0.414" stop-color="#C49C3B"/>
<stop offset="0.586" stop-color="#845D25"/>
<stop offset="0.7721" stop-color="#BF973D"/>
<stop offset="1" stop-color="#C29C41"/>
</linearGradient>
<linearGradient id="paint7_linear_1006_2468" x1="-4.96711" y1="-27.8525" x2="99.1479" y2="69.2546" gradientUnits="userSpaceOnUse">
<stop stop-color="#FFD77F"/>
<stop offset="0.2279" stop-color="#CEA449"/>
<stop offset="0.414" stop-color="#C49C3B"/>
<stop offset="0.586" stop-color="#845D25"/>
<stop offset="0.7721" stop-color="#BF973D"/>
<stop offset="1" stop-color="#C29C41"/>
</linearGradient>
<linearGradient id="paint8_linear_1006_2468" x1="-1.40402" y1="-31.6729" x2="102.711" y2="65.4343" gradientUnits="userSpaceOnUse">
<stop stop-color="#FFD77F"/>
<stop offset="0.2279" stop-color="#CEA449"/>
<stop offset="0.414" stop-color="#C49C3B"/>
<stop offset="0.586" stop-color="#845D25"/>
<stop offset="0.7721" stop-color="#BF973D"/>
<stop offset="1" stop-color="#C29C41"/>
</linearGradient>
<linearGradient id="paint9_linear_1006_2468" x1="-4.77709" y1="-28.0576" x2="99.3378" y2="69.0497" gradientUnits="userSpaceOnUse">
<stop stop-color="#FFD77F"/>
<stop offset="0.2279" stop-color="#CEA449"/>
<stop offset="0.414" stop-color="#C49C3B"/>
<stop offset="0.586" stop-color="#845D25"/>
<stop offset="0.7721" stop-color="#BF973D"/>
<stop offset="1" stop-color="#C29C41"/>
</linearGradient>
<linearGradient id="paint10_linear_1006_2468" x1="-3.88954" y1="-29.0081" x2="100.225" y2="68.0991" gradientUnits="userSpaceOnUse">
<stop stop-color="#FFD77F"/>
<stop offset="0.2279" stop-color="#CEA449"/>
<stop offset="0.414" stop-color="#C49C3B"/>
<stop offset="0.586" stop-color="#845D25"/>
<stop offset="0.7721" stop-color="#BF973D"/>
<stop offset="1" stop-color="#C29C41"/>
</linearGradient>
</defs>
</svg>
