<svg width="151" height="78" viewBox="0 0 151 78" fill="none" xmlns="http://www.w3.org/2000/svg">
<path d="M28.9051 69.9891C28.0645 68.9826 26.7836 68.3364 25.3883 68.3364H20.682C20.0873 68.3364 19.5155 67.9762 19.3611 67.41C19.1323 66.5866 19.79 65.7974 20.5905 65.7974H23.1924H26.6464C27.9845 65.7974 29.0652 64.7167 29.0652 63.3785V62.5208C29.0652 62.5036 29.0538 62.4922 29.0367 62.4922H23.1867H20.5848C20.1502 62.4922 19.7156 62.5494 19.3096 62.6695C17.4168 63.2241 16.0158 64.9854 16.0044 67.044V67.0727V67.0898C16.0215 67.5244 16.0787 67.9476 16.1873 68.3364C16.3646 68.954 16.6677 69.5087 17.0737 69.9891C17.6455 70.681 18.429 71.2071 19.3153 71.4644C19.7213 71.5845 20.1445 71.6474 20.5619 71.6474H25.3883C25.3883 71.6474 25.3883 71.6474 25.4055 71.6474C26.2689 71.6645 26.9609 72.5909 26.5148 73.483C26.2918 73.929 25.8057 74.1864 25.3082 74.1864H22.7807H20.2474H19.3268H3.87556V71.6474H8.92494H9.15368C10.9779 71.6474 12.4589 70.1663 12.4589 68.3421H8.92494H3.87556V65.8032H11.2123C13.0365 65.8032 14.5176 64.3221 14.5176 62.4979H3.87556H0.570312V65.8032V71.6474V74.1864V77.4916H3.87556H16.9365H22.7864H23.5584H25.3997C27.9101 77.4916 29.9688 75.433 29.9688 72.9054C29.9688 72.4708 29.9059 72.0477 29.7858 71.6417C29.5971 71.0298 29.294 70.4694 28.9051 69.9891Z" fill="url(#paint0_linear_1006_1647)"/>
<path d="M38.4395 65.7974H42.105C43.9292 65.7974 45.4103 64.3164 45.4103 62.4922H38.4395C36.0206 62.4922 33.779 63.756 32.5209 65.7974C31.8462 66.8668 31.4688 68.1248 31.4688 69.463V70.5151C31.4688 71.8533 31.8462 73.117 32.5209 74.1807C33.0756 75.0956 33.8591 75.8619 34.774 76.4337C35.8433 77.0971 37.1014 77.4859 38.4395 77.4859H45.4103C45.4103 75.6617 43.9292 74.1807 42.105 74.1807H38.4395C36.4209 74.1807 34.774 72.528 34.774 70.5151V69.463C34.774 67.4672 36.4266 65.7974 38.4395 65.7974Z" fill="url(#paint1_linear_1006_1647)"/>
<path d="M46.918 77.4916H50.6292L51.71 75.3415H57.2855L58.3834 77.4916H62.0832L54.5063 62.4922C51.9845 67.4958 49.4455 72.488 46.918 77.4916ZM53.3798 72.0362L54.5063 69.8289L55.6157 72.0362H53.3798Z" fill="url(#paint2_linear_1006_1647)"/>
<path d="M71.9234 62.4922H66.8912H63.5859V73.3858V77.4859H66.8912V73.3858H72.0778C75.5146 73.3858 78.2251 70.1778 77.3731 66.6266C76.7841 64.162 74.4624 62.4922 71.9234 62.4922ZM72.0778 70.0806H66.8912V65.7974H71.9977C72.9299 65.7974 73.8048 66.3521 74.1078 67.2328C74.6111 68.7024 73.4845 70.0806 72.0778 70.0806Z" fill="url(#paint3_linear_1006_1647)"/>
<path d="M89.685 65.7974C91.5091 65.7974 92.9902 64.3164 92.9902 62.4922H82.3482H79.043V65.7974V71.6417V74.1807V77.4859H82.3482H92.9902C92.9902 75.6617 91.5091 74.1807 89.685 74.1807H82.3482V71.6417H87.3976H87.6263C89.4505 71.6417 90.9316 70.1606 90.9316 68.3364H89.685H87.4033H82.3539V65.7974H89.685Z" fill="url(#paint4_linear_1006_1647)"/>
<path d="M107.482 65.7974H111.148C112.972 65.7974 114.453 64.3164 114.453 62.4922H107.482C105.064 62.4922 102.822 63.756 101.564 65.7974C100.889 66.8668 100.512 68.1248 100.512 69.463V70.5151C100.512 71.8533 100.889 73.117 101.564 74.1807C102.119 75.0956 102.902 75.8619 103.817 76.4337C104.886 77.0971 106.144 77.4859 107.482 77.4859H114.453C114.453 75.6617 112.972 74.1807 111.148 74.1807H107.482C105.464 74.1807 103.817 72.528 103.817 70.5151V69.463C103.817 67.4672 105.47 65.7974 107.482 65.7974Z" fill="url(#paint5_linear_1006_1647)"/>
<path d="M119.266 62.4922H115.961V77.4916H119.266V62.4922Z" fill="url(#paint6_linear_1006_1647)"/>
<path d="M126.093 62.4922H120.77V65.7974H126.093V77.4916H129.399V65.7974H134.717V62.4922H129.399H126.093Z" fill="url(#paint7_linear_1006_1647)"/>
<path d="M146.068 62.4922L144.884 64.2477L143.14 66.8325L141.573 64.5222L140.224 62.4922H136.227L141.139 69.7946L141.573 70.4294V75.0727V77.4916H144.884V75.3415V70.1549L145.136 69.7946L150.054 62.4922H146.068Z" fill="url(#paint8_linear_1006_1647)"/>
<path d="M40.916 25.3865C40.916 31.6195 46.0168 36.7204 52.2499 36.7204H73.8026V46.9392H52.2499C48.1154 46.9392 44.2155 45.7326 40.916 43.6854C38.0796 41.9184 35.6664 39.551 33.9452 36.7147C31.8522 33.4151 30.6914 29.5152 30.6914 25.3807V22.127C30.6914 17.9925 31.8522 14.0926 33.9452 10.793C37.8452 4.47419 44.7702 0.574219 52.2499 0.574219H119.55C119.55 6.2183 114.975 10.793 109.331 10.793H52.2499C46.0225 10.793 40.916 15.9511 40.916 22.127V25.3865Z" fill="url(#paint9_linear_1006_1647)"/>
<path d="M87.0256 36.7147V28.8691H103.329C108.973 28.8691 113.553 24.2943 113.553 18.6445H89.9992V18.6846H76.8125V46.9336H119.918C119.918 41.2895 115.338 36.709 109.693 36.709H87.0256V36.7147Z" fill="url(#paint10_linear_1006_1647)"/>
<defs>
<linearGradient id="paint0_linear_1006_1647" x1="-77.3017" y1="-15.9175" x2="132.142" y2="179.429" gradientUnits="userSpaceOnUse">
<stop stop-color="#FFD77F"/>
<stop offset="0.2279" stop-color="#CEA449"/>
<stop offset="0.414" stop-color="#C49C3B"/>
<stop offset="0.586" stop-color="#845D25"/>
<stop offset="0.7721" stop-color="#BF973D"/>
<stop offset="1" stop-color="#C29C41"/>
</linearGradient>
<linearGradient id="paint1_linear_1006_1647" x1="-65.3208" y1="-28.761" x2="144.123" y2="166.586" gradientUnits="userSpaceOnUse">
<stop stop-color="#FFD77F"/>
<stop offset="0.2279" stop-color="#CEA449"/>
<stop offset="0.414" stop-color="#C49C3B"/>
<stop offset="0.586" stop-color="#845D25"/>
<stop offset="0.7721" stop-color="#BF973D"/>
<stop offset="1" stop-color="#C29C41"/>
</linearGradient>
<linearGradient id="paint2_linear_1006_1647" x1="-60.5973" y1="-33.8275" x2="148.846" y2="161.519" gradientUnits="userSpaceOnUse">
<stop stop-color="#FFD77F"/>
<stop offset="0.2279" stop-color="#CEA449"/>
<stop offset="0.414" stop-color="#C49C3B"/>
<stop offset="0.586" stop-color="#845D25"/>
<stop offset="0.7721" stop-color="#BF973D"/>
<stop offset="1" stop-color="#C29C41"/>
</linearGradient>
<linearGradient id="paint3_linear_1006_1647" x1="-52.1386" y1="-42.8979" x2="157.305" y2="152.449" gradientUnits="userSpaceOnUse">
<stop stop-color="#FFD77F"/>
<stop offset="0.2279" stop-color="#CEA449"/>
<stop offset="0.414" stop-color="#C49C3B"/>
<stop offset="0.586" stop-color="#845D25"/>
<stop offset="0.7721" stop-color="#BF973D"/>
<stop offset="1" stop-color="#C29C41"/>
</linearGradient>
<linearGradient id="paint4_linear_1006_1647" x1="-44.1749" y1="-51.4362" x2="165.269" y2="143.91" gradientUnits="userSpaceOnUse">
<stop stop-color="#FFD77F"/>
<stop offset="0.2279" stop-color="#CEA449"/>
<stop offset="0.414" stop-color="#C49C3B"/>
<stop offset="0.586" stop-color="#845D25"/>
<stop offset="0.7721" stop-color="#BF973D"/>
<stop offset="1" stop-color="#C29C41"/>
</linearGradient>
<linearGradient id="paint5_linear_1006_1647" x1="-33.2014" y1="-63.1999" x2="176.242" y2="132.147" gradientUnits="userSpaceOnUse">
<stop stop-color="#FFD77F"/>
<stop offset="0.2279" stop-color="#CEA449"/>
<stop offset="0.414" stop-color="#C49C3B"/>
<stop offset="0.586" stop-color="#845D25"/>
<stop offset="0.7721" stop-color="#BF973D"/>
<stop offset="1" stop-color="#C29C41"/>
</linearGradient>
<linearGradient id="paint6_linear_1006_1647" x1="-29.4741" y1="-67.198" x2="179.969" y2="128.148" gradientUnits="userSpaceOnUse">
<stop stop-color="#FFD77F"/>
<stop offset="0.2279" stop-color="#CEA449"/>
<stop offset="0.414" stop-color="#C49C3B"/>
<stop offset="0.586" stop-color="#845D25"/>
<stop offset="0.7721" stop-color="#BF973D"/>
<stop offset="1" stop-color="#C29C41"/>
</linearGradient>
<linearGradient id="paint7_linear_1006_1647" x1="-23.5243" y1="-73.5778" x2="185.919" y2="121.768" gradientUnits="userSpaceOnUse">
<stop stop-color="#FFD77F"/>
<stop offset="0.2279" stop-color="#CEA449"/>
<stop offset="0.414" stop-color="#C49C3B"/>
<stop offset="0.586" stop-color="#845D25"/>
<stop offset="0.7721" stop-color="#BF973D"/>
<stop offset="1" stop-color="#C29C41"/>
</linearGradient>
<linearGradient id="paint8_linear_1006_1647" x1="-16.3563" y1="-81.2631" x2="193.087" y2="114.083" gradientUnits="userSpaceOnUse">
<stop stop-color="#FFD77F"/>
<stop offset="0.2279" stop-color="#CEA449"/>
<stop offset="0.414" stop-color="#C49C3B"/>
<stop offset="0.586" stop-color="#845D25"/>
<stop offset="0.7721" stop-color="#BF973D"/>
<stop offset="1" stop-color="#C29C41"/>
</linearGradient>
<linearGradient id="paint9_linear_1006_1647" x1="-23.1356" y1="-73.9889" x2="186.308" y2="121.358" gradientUnits="userSpaceOnUse">
<stop stop-color="#FFD77F"/>
<stop offset="0.2279" stop-color="#CEA449"/>
<stop offset="0.414" stop-color="#C49C3B"/>
<stop offset="0.586" stop-color="#845D25"/>
<stop offset="0.7721" stop-color="#BF973D"/>
<stop offset="1" stop-color="#C29C41"/>
</linearGradient>
<linearGradient id="paint10_linear_1006_1647" x1="-21.3557" y1="-75.901" x2="188.088" y2="119.445" gradientUnits="userSpaceOnUse">
<stop stop-color="#FFD77F"/>
<stop offset="0.2279" stop-color="#CEA449"/>
<stop offset="0.414" stop-color="#C49C3B"/>
<stop offset="0.586" stop-color="#845D25"/>
<stop offset="0.7721" stop-color="#BF973D"/>
<stop offset="1" stop-color="#C29C41"/>
</linearGradient>
</defs>
</svg>
